<svg width="300" height="300" viewBox="0 0 300 300" fill="none" xmlns="http://www.w3.org/2000/svg">
<g clip-path="url(#clip0_2_3)">
<rect width="301" height="300" rx="30" fill="#EFF9FF"/>
<line x1="149.5" y1="300" x2="149.5" y2="6.55671e-08" stroke="#D1ECFD" stroke-width="3"/>
<line y1="148.5" x2="300" y2="148.5" stroke="#D1ECFD" stroke-width="3"/>
<path d="M148 148H301V280C301 291.046 292.046 300 281 300H148V148Z" fill="#2F2BFD"/>
<g filter="url(#filter0_d_2_3)">
<path d="M69.5613 77.024H46V68.5289H69.5613V45H78.0479V68.5289H102V77.024H78.0479V101H69.5613V77.024Z" fill="#3A71FF"/>
</g>
<g filter="url(#filter1_d_2_3)">
<path d="M42 219H102V229H42V219Z" fill="#3A71FF"/>
</g>
<g filter="url(#filter2_d_2_3)">
<path d="M193 68.3127H255V78.6204H193V68.3127ZM223.704 57.001C221.074 57.001 218.883 56.287 217.129 54.8591C215.42 53.3866 214.565 51.2894 214.565 48.5674C214.565 45.8009 215.42 43.6813 217.129 42.2088C218.883 40.7363 221.074 40 223.704 40C226.378 40 228.591 40.7363 230.345 42.2088C232.098 43.6813 232.975 45.8009 232.975 48.5674C232.975 51.2894 232.098 53.3866 230.345 54.8591C228.591 56.287 226.378 57.001 223.704 57.001ZM223.704 107C221.074 107 218.883 106.286 217.129 104.858C215.42 103.386 214.565 101.288 214.565 98.5664C214.565 95.7999 215.42 93.6803 217.129 92.2078C218.883 90.7353 221.074 89.999 223.704 89.999C226.378 89.999 228.591 90.7353 230.345 92.2078C232.098 93.6803 232.975 95.7999 232.975 98.5664C232.975 101.288 232.098 103.386 230.345 104.858C228.591 106.286 226.378 107 223.704 107Z" fill="#3A71FF"/>
</g>
<g filter="url(#filter3_d_2_3)">
<path d="M189 204H259V214.892H189V204ZM189 229.108H259V240H189V229.108Z" fill="#D7EFF7"/>
</g>
</g>
<defs>
<filter id="filter0_d_2_3" x="42" y="41" width="64" height="64" filterUnits="userSpaceOnUse" color-interpolation-filters="sRGB">
<feFlood flood-opacity="0" result="BackgroundImageFix"/>
<feColorMatrix in="SourceAlpha" type="matrix" values="0 0 0 0 0 0 0 0 0 0 0 0 0 0 0 0 0 0 127 0" result="hardAlpha"/>
<feOffset/>
<feGaussianBlur stdDeviation="2"/>
<feComposite in2="hardAlpha" operator="out"/>
<feColorMatrix type="matrix" values="0 0 0 0 0.196979 0 0 0 0 0.324144 0 0 0 0 0.775 0 0 0 0.64 0"/>
<feBlend mode="normal" in2="BackgroundImageFix" result="effect1_dropShadow_2_3"/>
<feBlend mode="normal" in="SourceGraphic" in2="effect1_dropShadow_2_3" result="shape"/>
</filter>
<filter id="filter1_d_2_3" x="38" y="215" width="68" height="18" filterUnits="userSpaceOnUse" color-interpolation-filters="sRGB">
<feFlood flood-opacity="0" result="BackgroundImageFix"/>
<feColorMatrix in="SourceAlpha" type="matrix" values="0 0 0 0 0 0 0 0 0 0 0 0 0 0 0 0 0 0 127 0" result="hardAlpha"/>
<feOffset/>
<feGaussianBlur stdDeviation="2"/>
<feComposite in2="hardAlpha" operator="out"/>
<feColorMatrix type="matrix" values="0 0 0 0 0.196979 0 0 0 0 0.324144 0 0 0 0 0.775 0 0 0 0.64 0"/>
<feBlend mode="normal" in2="BackgroundImageFix" result="effect1_dropShadow_2_3"/>
<feBlend mode="normal" in="SourceGraphic" in2="effect1_dropShadow_2_3" result="shape"/>
</filter>
<filter id="filter2_d_2_3" x="189" y="36" width="70" height="75" filterUnits="userSpaceOnUse" color-interpolation-filters="sRGB">
<feFlood flood-opacity="0" result="BackgroundImageFix"/>
<feColorMatrix in="SourceAlpha" type="matrix" values="0 0 0 0 0 0 0 0 0 0 0 0 0 0 0 0 0 0 127 0" result="hardAlpha"/>
<feOffset/>
<feGaussianBlur stdDeviation="2"/>
<feComposite in2="hardAlpha" operator="out"/>
<feColorMatrix type="matrix" values="0 0 0 0 0.196979 0 0 0 0 0.324144 0 0 0 0 0.775 0 0 0 0.64 0"/>
<feBlend mode="normal" in2="BackgroundImageFix" result="effect1_dropShadow_2_3"/>
<feBlend mode="normal" in="SourceGraphic" in2="effect1_dropShadow_2_3" result="shape"/>
</filter>
<filter id="filter3_d_2_3" x="185" y="200" width="78" height="44" filterUnits="userSpaceOnUse" color-interpolation-filters="sRGB">
<feFlood flood-opacity="0" result="BackgroundImageFix"/>
<feColorMatrix in="SourceAlpha" type="matrix" values="0 0 0 0 0 0 0 0 0 0 0 0 0 0 0 0 0 0 127 0" result="hardAlpha"/>
<feOffset/>
<feGaussianBlur stdDeviation="2"/>
<feComposite in2="hardAlpha" operator="out"/>
<feColorMatrix type="matrix" values="0 0 0 0 0.486528 0 0 0 0 0.827882 0 0 0 0 0.941667 0 0 0 1 0"/>
<feBlend mode="normal" in2="BackgroundImageFix" result="effect1_dropShadow_2_3"/>
<feBlend mode="normal" in="SourceGraphic" in2="effect1_dropShadow_2_3" result="shape"/>
</filter>
<clipPath id="clip0_2_3">
<rect width="300" height="300" fill="white"/>
</clipPath>
</defs>
</svg>
